<svg id="Layer_1" data-name="Layer 1" xmlns="http://www.w3.org/2000/svg" viewBox="0 0 269.64 88.76"><defs><style>.cls-1{fill:#ea4335;}.cls-2{fill:#fbbc05;}.cls-3{fill:#4285f4;}.cls-4{fill:#34a853;}</style></defs><path class="cls-1" d="M115.75,47.18a22.25,22.25,0,0,1-44.5,0,22.25,22.25,0,0,1,44.5,0Zm-9.74,0c0-8-5.79-13.44-12.51-13.44S81,39.2,81,47.18,86.78,60.62,93.5,60.62,106,55.07,106,47.18Z" transform="translate(-0.36 -0.47)"/><path class="cls-2" d="M163.75,47.18a22.25,22.25,0,0,1-44.5,0,22.25,22.25,0,0,1,44.5,0Zm-9.74,0c0-8-5.79-13.44-12.51-13.44S129,39.2,129,47.18s5.79,13.44,12.51,13.44S154,55.07,154,47.18Z" transform="translate(-0.36 -0.47)"/><path class="cls-3" d="M209.75,26.34V66.16c0,16.38-9.66,23.07-21.08,23.07A21.12,21.12,0,0,1,169,76.16l8.48-3.53c1.51,3.61,5.21,7.87,11.17,7.87,7.31,0,11.84-4.51,11.84-13V64.31h-.34a15.1,15.1,0,0,1-11.68,5c-11.09,0-21.25-9.66-21.25-22.09S177.39,25,188.48,25a15.37,15.37,0,0,1,11.68,5h.34V26.35h9.25Zm-8.56,20.92c0-7.81-5.21-13.52-11.84-13.52S177,39.45,177,47.26s5.63,13.36,12.35,13.36S201.19,55,201.19,47.26Z" transform="translate(-0.36 -0.47)"/><path class="cls-4" d="M225,3V68h-9.5V3Z" transform="translate(-0.36 -0.47)"/><path class="cls-1" d="M262,54.48l7.56,5a22.08,22.08,0,0,1-18.48,9.83c-12.6,0-22-9.74-22-22.18C229.09,34,238.58,25,250,25s17.14,9.16,19,14.11l1,2.52L240.35,53.9c2.27,4.45,5.8,6.72,10.75,6.72s8.4-2.44,10.92-6.14Zm-23.27-8,19.82-8.23c-1.09-2.77-4.37-4.7-8.23-4.7A12.17,12.17,0,0,0,238.75,46.5Z" transform="translate(-0.36 -0.47)"/><path class="cls-3" d="M35.29,41.41V32H67a31.18,31.18,0,0,1,.47,5.68c0,7.06-1.93,15.79-8.15,22-6,6.3-13.78,9.66-24,9.66C16.32,69.35.36,53.89.36,34.91S16.32.47,35.3.47A32.82,32.82,0,0,1,58.9,10L52.26,16.6a24,24,0,0,0-17-6.72,24.7,24.7,0,0,0-24.7,25,24.7,24.7,0,0,0,24.7,25c9,0,14.11-3.61,17.39-6.89,2.66-2.66,4.41-6.46,5.1-11.65Z" transform="translate(-0.36 -0.47)"/></svg>