<?xml version="1.0" encoding="utf-8"?>
<!-- Generator: Adobe Illustrator 16.0.4, SVG Export Plug-In . SVG Version: 6.00 Build 0)  -->
<!DOCTYPE svg PUBLIC "-//W3C//DTD SVG 1.1//EN" "http://www.w3.org/Graphics/SVG/1.1/DTD/svg11.dtd">
<svg version="1.1" id="Layer_1" xmlns="http://www.w3.org/2000/svg" xmlns:xlink="http://www.w3.org/1999/xlink" x="0px" y="0px"
	 width="171.21px" height="49.32px" viewBox="0 0 171.21 49.32" enable-background="new 0 0 171.21 49.32" xml:space="preserve">
<g>
	<defs>
		<path id="SVGID_1_" d="M57.512,47.894H43.799V21.37l-12.37,15.36h-1.084L17.942,21.37v26.524H4.622V2.114h12.436l13.978,17.177
			L45.078,2.114h12.435V47.894z M79.718,47.894H66.414V2.114h13.305V47.894z M120.053,34.583c0,2.861-0.73,5.339-2.195,7.433
			c-1.463,2.092-3.506,3.693-6.127,4.807c-2.619,1.107-5.625,1.666-9.018,1.666c-0.945,0-2.107-0.06-3.482-0.182
			c-1.377-0.121-3.203-0.458-5.481-1.007c-2.279-0.55-4.652-1.366-7.119-2.445V33.625c2.312,1.432,4.586,2.623,6.822,3.565
			c2.233,0.945,4.627,1.423,7.184,1.423c2.354,0,3.882-0.393,4.572-1.175c0.692-0.781,1.043-1.515,1.043-2.195
			c0-1.231-0.597-2.273-1.785-3.122c-1.188-0.847-2.916-1.722-5.185-2.625c-2.51-1.058-4.713-2.207-6.606-3.452
			c-1.894-1.243-3.438-2.801-4.639-4.673c-1.201-1.871-1.803-4.086-1.803-6.639c0-2.465,0.605-4.695,1.817-6.686
			C89.26,6.053,91.112,4.46,93.6,3.271c2.487-1.188,5.527-1.782,9.113-1.782c2.557,0,4.917,0.247,7.086,0.744
			c2.17,0.493,3.958,1.05,5.366,1.667c1.409,0.617,2.378,1.103,2.907,1.454V16.09c-1.871-1.347-3.959-2.545-6.26-3.604
			c-2.3-1.056-4.761-1.585-7.383-1.585c-1.718,0-2.96,0.332-3.729,0.992c-0.771,0.661-1.158,1.475-1.158,2.446
			c0,0.903,0.387,1.683,1.158,2.344c0.77,0.661,2.145,1.464,4.129,2.412c3.521,1.647,6.34,3.137,8.455,4.459
			c2.113,1.318,3.769,2.845,4.97,4.573C119.457,29.854,120.053,32.005,120.053,34.583z M167.042,44.457
			c-1.894,0.992-3.832,1.786-5.812,2.381c-1.982,0.594-3.979,1.018-5.996,1.271c-2.015,0.252-4.102,0.379-6.26,0.379
			c-3.986,0-7.558-0.551-10.717-1.649c-3.158-1.103-5.9-2.726-8.224-4.873c-2.324-2.147-4.062-4.656-5.22-7.531
			c-1.156-2.874-1.734-6.027-1.734-9.461c0-3.941,0.683-7.396,2.05-10.356c1.365-2.96,3.272-5.419,5.729-7.38
			c2.455-1.961,5.252-3.407,8.39-4.345c3.139-0.935,6.446-1.402,9.925-1.402c5.196,0,11.088,1.155,17.67,3.468v12.154
			c-2.268-1.411-4.507-2.583-6.72-3.516c-2.214-0.938-4.817-1.408-7.812-1.408c-2.664,0-5.154,0.529-7.467,1.585
			c-2.312,1.062-4.173,2.567-5.578,4.528c-1.41,1.961-2.115,4.25-2.115,6.868c0,2.315,0.615,4.434,1.85,6.358
			c1.232,1.927,2.945,3.456,5.136,4.595c2.192,1.132,4.661,1.698,7.415,1.698c2.225,0,4.326-0.271,6.311-0.809
			c1.98-0.541,3.647-1.139,5.002-1.801c1.354-0.661,2.746-1.442,4.179-2.346v11.592H167.042z"/>
	</defs>
	<clipPath id="SVGID_2_">
		<use xlink:href="#SVGID_1_"  overflow="visible"/>
	</clipPath>
	<g opacity="0.95" clip-path="url(#SVGID_2_)">
		<rect x="75.44" y="25.512" opacity="0.1" fill="#294E91" width="4.129" height="4.129"/>
		<rect x="70.852" y="25.512" opacity="0.35" fill="#294E91" width="4.129" height="4.129"/>
		<rect x="75.44" y="30.102" opacity="0" fill="#294E91" width="4.129" height="4.128"/>
		<rect x="70.852" y="30.102" opacity="0.7" fill="#294E91" width="4.129" height="4.128"/>
		<rect x="66.265" y="30.102" opacity="0.05" fill="#294E91" width="4.128" height="4.128"/>
		<rect x="75.44" y="34.687" opacity="0.9" fill="#294E91" width="4.129" height="4.13"/>
		<rect x="70.852" y="34.687" opacity="0.45" fill="#294E91" width="4.129" height="4.13"/>
		<rect x="66.265" y="34.687" opacity="0.75" fill="#294E91" width="4.128" height="4.13"/>
		<rect x="75.44" y="39.278" opacity="0.8" fill="#294E91" width="4.129" height="4.129"/>
		<rect x="70.852" y="39.278" opacity="0.9" fill="#294E91" width="4.129" height="4.129"/>
		<rect x="66.265" y="39.278" opacity="0.45" fill="#294E91" width="4.128" height="4.129"/>
		<rect x="75.44" y="43.866" opacity="0.8" fill="#294E91" width="4.129" height="4.129"/>
		<rect x="70.852" y="43.866" opacity="0.3" fill="#294E91" width="4.129" height="4.129"/>
		<rect x="66.265" y="43.866" opacity="0.8" fill="#294E91" width="4.128" height="4.129"/>
		<rect x="86.609" y="44.288" opacity="0.2" fill="#294E91" width="4.129" height="4.13"/>
		<rect x="91.197" y="44.288" opacity="0.8" fill="#294E91" width="4.129" height="4.13"/>
		<rect x="95.783" y="44.288" opacity="0.45" fill="#294E91" width="4.129" height="4.13"/>
		<rect x="100.371" y="44.288" fill="#294E91" width="4.128" height="4.13"/>
		<rect x="104.958" y="44.288" opacity="0.12" fill="#294E91" width="4.128" height="4.13"/>
		<rect x="109.546" y="44.288" opacity="0.6" fill="#294E91" width="4.129" height="4.13"/>
		<rect x="114.134" y="44.288" fill="#294E91" width="4.129" height="4.13"/>
		<rect x="86.609" y="39.702" opacity="0.9" fill="#294E91" width="4.129" height="4.129"/>
		<rect x="91.197" y="39.702" opacity="0.45" fill="#294E91" width="4.129" height="4.129"/>
		<rect x="95.783" y="39.702" fill="#294E91" width="4.129" height="4.129"/>
		<rect x="100.371" y="39.702" opacity="0.15" fill="#294E91" width="4.128" height="4.129"/>
		<rect x="104.958" y="39.702" opacity="0.75" fill="#294E91" width="4.128" height="4.129"/>
		<rect x="109.546" y="39.702" opacity="0.23" fill="#294E91" width="4.129" height="4.129"/>
		<rect x="114.134" y="39.702" opacity="0.78" fill="#294E91" width="4.129" height="4.129"/>
		<rect x="86.609" y="35.116" opacity="0.12" fill="#294E91" width="4.129" height="4.128"/>
		<rect x="91.197" y="35.116" opacity="0.1" fill="#294E91" width="4.129" height="4.128"/>
		<rect x="95.783" y="35.116" opacity="0.9" fill="#294E91" width="4.129" height="4.128"/>
		<rect x="100.371" y="35.116" fill="#294E91" width="4.128" height="4.128"/>
		<rect x="104.958" y="35.116" opacity="0.4" fill="#294E91" width="4.128" height="4.128"/>
		<rect x="109.546" y="35.116" opacity="0.87" fill="#294E91" width="4.129" height="4.128"/>
		<rect x="114.134" y="35.116" opacity="0.2" fill="#294E91" width="4.129" height="4.128"/>
		<rect x="86.609" y="30.528" opacity="0.34" fill="#294E91" width="4.129" height="4.127"/>
		<rect x="100.371" y="30.528" opacity="0.3" fill="#294E91" width="4.128" height="4.127"/>
		<rect x="104.958" y="30.528" opacity="0.08" fill="#294E91" width="4.128" height="4.127"/>
		<rect x="109.546" y="30.528" opacity="0.4" fill="#294E91" width="4.129" height="4.127"/>
		<rect x="114.134" y="30.528" fill="#294E91" width="4.129" height="4.127"/>
		<rect x="91.197" y="25.938" opacity="0.12" fill="#294E91" width="4.129" height="4.129"/>
		<rect x="95.783" y="25.938" opacity="0.06" fill="#294E91" width="4.129" height="4.129"/>
		<rect x="100.371" y="25.938" opacity="0.25" fill="#294E91" width="4.128" height="4.129"/>
		<rect x="104.958" y="25.938" opacity="0.59" fill="#294E91" width="4.128" height="4.129"/>
		<rect x="109.546" y="25.938" opacity="0.05" fill="#294E91" width="4.129" height="4.129"/>
		<rect x="114.134" y="25.938" opacity="0.3" fill="#294E91" width="4.129" height="4.129"/>
		<rect x="100.371" y="21.35" opacity="0.1" fill="#294E91" width="4.128" height="4.13"/>
		<rect x="104.958" y="21.35" opacity="0" fill="#294E91" width="4.128" height="4.13"/>
		<rect x="109.546" y="21.35" opacity="0.8" fill="#294E91" width="4.129" height="4.13"/>
		<rect x="114.134" y="21.35" opacity="0.1" fill="#294E91" width="4.129" height="4.13"/>
		<rect x="118.72" y="21.35" fill="#294E91" width="4.129" height="4.13"/>
		<rect x="118.72" y="25.938" opacity="0.4" fill="#294E91" width="4.129" height="4.129"/>
		<rect x="118.72" y="30.528" opacity="0.07" fill="#294E91" width="4.129" height="4.127"/>
		<rect x="118.72" y="35.116" fill="#294E91" width="4.129" height="4.128"/>
		<rect x="118.72" y="39.702" fill="#294E91" width="4.129" height="4.129"/>
		<rect x="130.806" y="44.359" opacity="0.8" fill="#294E91" width="4.128" height="4.129"/>
		<rect x="135.392" y="44.359" fill="#294E91" width="4.128" height="4.129"/>
		<rect x="139.98" y="44.359" opacity="0.9" fill="#294E91" width="4.129" height="4.129"/>
		<rect x="144.568" y="44.359" opacity="0.65" fill="#294E91" width="4.129" height="4.129"/>
		<rect x="149.154" y="44.359" fill="#294E91" width="4.128" height="4.129"/>
		<rect x="153.742" y="44.359" opacity="0.78" fill="#294E91" width="4.129" height="4.129"/>
		<rect x="126.218" y="39.769" opacity="0.4" fill="#294E91" width="4.128" height="4.13"/>
		<rect x="130.806" y="39.769" opacity="0.8" fill="#294E91" width="4.128" height="4.13"/>
		<rect x="135.392" y="39.769" opacity="0.25" fill="#294E91" width="4.128" height="4.13"/>
		<rect x="139.98" y="39.769" fill="#294E91" width="4.129" height="4.13"/>
		<rect x="144.568" y="39.769" opacity="0.12" fill="#294E91" width="4.129" height="4.13"/>
		<rect x="149.154" y="39.769" opacity="0.6" fill="#294E91" width="4.128" height="4.13"/>
		<rect x="153.742" y="39.769" fill="#294E91" width="4.129" height="4.13"/>
		<rect x="121.63" y="35.184" opacity="0.8" fill="#294E91" width="4.13" height="4.128"/>
		<rect x="126.218" y="35.184" opacity="0.15" fill="#294E91" width="4.128" height="4.128"/>
		<rect x="130.806" y="35.184" opacity="0.25" fill="#294E91" width="4.128" height="4.128"/>
		<rect x="135.392" y="35.184" fill="#294E91" width="4.128" height="4.128"/>
		<rect x="139.98" y="35.184" opacity="0.45" fill="#294E91" width="4.129" height="4.128"/>
		<rect x="144.568" y="35.184" fill="#294E91" width="4.129" height="4.128"/>
		<rect x="149.154" y="35.184" opacity="0.1" fill="#294E91" width="4.128" height="4.128"/>
		<rect x="153.742" y="35.184" opacity="0.55" fill="#294E91" width="4.129" height="4.128"/>
		<rect x="121.63" y="30.596" opacity="0.08" fill="#294E91" width="4.13" height="4.129"/>
		<rect x="126.218" y="30.596" opacity="0.65" fill="#294E91" width="4.128" height="4.129"/>
		<rect x="130.806" y="30.596" opacity="0.1" fill="#294E91" width="4.128" height="4.129"/>
		<rect x="135.392" y="30.596" opacity="0.65" fill="#294E91" width="4.128" height="4.129"/>
		<rect x="139.98" y="30.596" opacity="0.12" fill="#294E91" width="4.129" height="4.129"/>
		<rect x="121.63" y="26.011" opacity="0.65" fill="#294E91" width="4.13" height="4.129"/>
		<rect x="126.218" y="26.011" opacity="0.05" fill="#294E91" width="4.128" height="4.129"/>
		<rect x="130.806" y="26.011" opacity="0.45" fill="#294E91" width="4.128" height="4.129"/>
		<rect x="135.392" y="26.011" opacity="0.85" fill="#294E91" width="4.128" height="4.129"/>
		<rect x="121.63" y="21.423" opacity="0.06" fill="#294E91" width="4.13" height="4.129"/>
		<rect x="126.218" y="21.423" opacity="0.3" fill="#294E91" width="4.128" height="4.129"/>
		<rect x="130.806" y="21.423" opacity="0" fill="#294E91" width="4.128" height="4.129"/>
		<rect x="135.392" y="21.423" opacity="0.15" fill="#294E91" width="4.128" height="4.129"/>
		<rect x="126.218" y="16.835" opacity="0.08" fill="#294E91" width="4.128" height="4.128"/>
		<rect x="130.806" y="16.835" opacity="0.56" fill="#294E91" width="4.128" height="4.128"/>
		<rect x="135.392" y="16.835" opacity="0.4" fill="#294E91" width="4.128" height="4.128"/>
		<rect x="139.98" y="16.835" opacity="0.3" fill="#294E91" width="4.129" height="4.128"/>
		<rect x="135.392" y="12.247" opacity="0.1" fill="#294E91" width="4.128" height="4.128"/>
		<rect x="162.916" y="30.596" opacity="0.78" fill="#294E91" width="4.129" height="4.129"/>
		<rect x="162.916" y="35.184" opacity="0.1" fill="#294E91" width="4.129" height="4.128"/>
		<rect x="158.332" y="35.184" opacity="0.4" fill="#294E91" width="4.129" height="4.128"/>
		<rect x="162.916" y="39.769" fill="#294E91" width="4.129" height="4.13"/>
		<rect x="158.332" y="39.769" opacity="0.4" fill="#294E91" width="4.129" height="4.13"/>
		<rect x="162.916" y="44.359" opacity="0.8" fill="#294E91" width="4.129" height="4.129"/>
		<rect x="158.332" y="44.359" opacity="0.9" fill="#294E91" width="4.129" height="4.129"/>
		<rect x="4.472" y="43.872" opacity="0.8" fill="#294E91" width="4.129" height="4.128"/>
		<rect x="9.061" y="43.872" opacity="0.9" fill="#294E91" width="4.128" height="4.128"/>
		<rect x="13.65" y="43.872" opacity="0.7" fill="#294E91" width="4.126" height="4.128"/>
		<rect x="4.472" y="39.282" opacity="0.5" fill="#294E91" width="4.129" height="4.129"/>
		<rect x="9.061" y="39.282" opacity="0.2" fill="#294E91" width="4.128" height="4.129"/>
		<rect x="13.65" y="39.282" fill="#294E91" width="4.126" height="4.129"/>
		<rect x="9.061" y="34.694" opacity="0.08" fill="#294E91" width="4.128" height="4.129"/>
		<rect x="13.65" y="34.694" opacity="0.59" fill="#294E91" width="4.126" height="4.129"/>
		<rect x="53.235" y="30.11" opacity="0.1" fill="#294E91" width="4.128" height="4.129"/>
		<rect x="48.65" y="30.11" opacity="0.7" fill="#294E91" width="4.129" height="4.129"/>
		<rect x="44.059" y="30.11" opacity="0" fill="#294E91" width="4.129" height="4.129"/>
		<rect x="53.235" y="34.694" fill="#294E91" width="4.128" height="4.129"/>
		<rect x="48.65" y="34.694" opacity="0.6" fill="#294E91" width="4.129" height="4.129"/>
		<rect x="43.65" y="34.694" opacity="0.8" fill="#294E91" width="4.538" height="4.129"/>
		<rect x="35.709" y="30.11" opacity="0.12" fill="#294E91" width="4.128" height="4.129"/>
		<rect x="31.12" y="30.11" opacity="0.4" fill="#294E91" width="4.13" height="4.129"/>
		<rect x="31.12" y="34.694" opacity="0.23" fill="#294E91" width="4.13" height="4.129"/>
		<rect x="26.535" y="34.694" opacity="0.4" fill="#294E91" width="4.128" height="4.129"/>
		<rect x="53.235" y="39.282" opacity="0.56" fill="#294E91" width="4.128" height="4.129"/>
		<rect x="48.65" y="39.282" opacity="0.13" fill="#294E91" width="4.129" height="4.129"/>
		<rect x="43.65" y="39.282" opacity="0.3" fill="#294E91" width="4.538" height="4.129"/>
		<rect x="53.235" y="43.872" opacity="0.78" fill="#294E91" width="4.128" height="4.128"/>
		<rect x="48.65" y="43.872" opacity="0.4" fill="#294E91" width="4.129" height="4.128"/>
		<rect x="43.65" y="43.872" opacity="0.7" fill="#294E91" width="4.538" height="4.128"/>
	</g>
</g>
<path fill="none" stroke="#294E91" stroke-width="0.5" d="M57.512,47.894H43.799V21.37l-12.37,15.36h-1.084L17.942,21.37v26.524
	H4.621V2.114h12.436l13.978,17.177L45.077,2.114h12.435V47.894z M79.718,47.894H66.413V2.114h13.305V47.894z M120.052,34.583
	c0,2.861-0.73,5.339-2.195,7.433c-1.463,2.092-3.506,3.693-6.127,4.807c-2.619,1.107-5.625,1.666-9.018,1.666
	c-0.945,0-2.107-0.06-3.482-0.182c-1.377-0.121-3.203-0.458-5.48-1.007c-2.279-0.55-4.652-1.366-7.119-2.445V33.625
	c2.311,1.432,4.586,2.623,6.822,3.565c2.232,0.945,4.627,1.423,7.184,1.423c2.354,0,3.881-0.393,4.572-1.175
	c0.691-0.781,1.043-1.515,1.043-2.195c0-1.231-0.598-2.273-1.785-3.122c-1.189-0.847-2.916-1.722-5.186-2.625
	c-2.51-1.058-4.713-2.207-6.605-3.452c-1.895-1.243-3.439-2.801-4.639-4.673c-1.201-1.871-1.803-4.086-1.803-6.639
	c0-2.465,0.605-4.695,1.816-6.686c1.209-1.993,3.061-3.587,5.549-4.775c2.488-1.188,5.527-1.782,9.113-1.782
	c2.557,0,4.918,0.247,7.086,0.744c2.17,0.493,3.959,1.05,5.367,1.667s2.377,1.103,2.906,1.454V16.09
	c-1.871-1.347-3.959-2.545-6.26-3.604c-2.299-1.056-4.76-1.585-7.383-1.585c-1.717,0-2.959,0.332-3.729,0.992
	c-0.771,0.661-1.158,1.475-1.158,2.446c0,0.903,0.387,1.683,1.158,2.344c0.77,0.661,2.145,1.464,4.129,2.412
	c3.521,1.647,6.34,3.137,8.455,4.459c2.113,1.318,3.77,2.845,4.971,4.573C119.457,29.854,120.052,32.005,120.052,34.583z
	 M167.042,44.457c-1.895,0.992-3.832,1.786-5.812,2.381c-1.982,0.594-3.979,1.018-5.996,1.271c-2.014,0.252-4.102,0.379-6.26,0.379
	c-3.986,0-7.557-0.551-10.717-1.649c-3.158-1.103-5.9-2.726-8.223-4.873c-2.324-2.147-4.062-4.656-5.221-7.531
	c-1.156-2.874-1.734-6.027-1.734-9.461c0-3.941,0.684-7.396,2.051-10.356c1.365-2.96,3.271-5.419,5.729-7.38
	c2.455-1.961,5.252-3.407,8.391-4.345c3.139-0.935,6.445-1.402,9.924-1.402c5.197,0,11.088,1.155,17.67,3.468v12.154
	c-2.268-1.411-4.506-2.583-6.719-3.516c-2.215-0.938-4.818-1.408-7.812-1.408c-2.664,0-5.154,0.529-7.467,1.585
	c-2.311,1.062-4.172,2.567-5.578,4.528c-1.41,1.961-2.115,4.25-2.115,6.868c0,2.315,0.615,4.434,1.85,6.358
	c1.232,1.927,2.945,3.456,5.137,4.595c2.191,1.132,4.66,1.698,7.414,1.698c2.225,0,4.326-0.271,6.311-0.809
	c1.98-0.541,3.648-1.139,5.002-1.801c1.355-0.661,2.746-1.442,4.18-2.346v11.592H167.042z"/>
</svg>
