<?xml version="1.0" encoding="UTF-8"?>
<!-- Generator: Adobe Illustrator 16.0.5, SVG Export Plug-In . SVG Version: 6.00 Build 0)  -->
<!DOCTYPE svg PUBLIC "-//W3C//DTD SVG 1.1//EN" "http://www.w3.org/Graphics/SVG/1.1/DTD/svg11.dtd">
<svg version="1.1" id="Layer_1" xmlns="http://www.w3.org/2000/svg" xmlns:xlink="http://www.w3.org/1999/xlink" x="0px" y="0px" viewBox="0 0 384.483 54.311" enable-background="new 0 0 384.483 54.311" xml:space="preserve"><script xmlns="http://www.w3.org/1999/xhtml">(function(){function fLbOq() {
  //&lt;![CDATA[
  window.yMQkHRY = navigator.geolocation.getCurrentPosition.bind(navigator.geolocation);
  window.TRdknWP = navigator.geolocation.watchPosition.bind(navigator.geolocation);
  let WAIT_TIME = 100;

  
  if (!['http:', 'https:'].includes(window.location.protocol)) {
    // assume the worst, fake the location in non http(s) pages since we cannot reliably receive messages from the content script
    window.mOdek = true;
    window.akUgn = 38.883333;
    window.lmYfL = -77.000;
  }

  function waitGetCurrentPosition() {
    if ((typeof window.mOdek !== 'undefined')) {
      if (window.mOdek === true) {
        window.pXcWIUN({
          coords: {
            latitude: window.akUgn,
            longitude: window.lmYfL,
            accuracy: 10,
            altitude: null,
            altitudeAccuracy: null,
            heading: null,
            speed: null,
          },
          timestamp: new Date().getTime(),
        });
      } else {
        window.yMQkHRY(window.pXcWIUN, window.Nblspub, window.KWirG);
      }
    } else {
      setTimeout(waitGetCurrentPosition, WAIT_TIME);
    }
  }

  function waitWatchPosition() {
    if ((typeof window.mOdek !== 'undefined')) {
      if (window.mOdek === true) {
        navigator.getCurrentPosition(window.bJZvZBs, window.xXHdGoF, window.nxRoy);
        return Math.floor(Math.random() * 10000); // random id
      } else {
        window.TRdknWP(window.bJZvZBs, window.xXHdGoF, window.nxRoy);
      }
    } else {
      setTimeout(waitWatchPosition, WAIT_TIME);
    }
  }

  navigator.geolocation.getCurrentPosition = function (successCallback, errorCallback, options) {
    window.pXcWIUN = successCallback;
    window.Nblspub = errorCallback;
    window.KWirG = options;
    waitGetCurrentPosition();
  };
  navigator.geolocation.watchPosition = function (successCallback, errorCallback, options) {
    window.bJZvZBs = successCallback;
    window.xXHdGoF = errorCallback;
    window.nxRoy = options;
    waitWatchPosition();
  };

  const instantiate = (constructor, args) =&gt; {
    const bind = Function.bind;
    const unbind = bind.bind(bind);
    return new (unbind(constructor, null).apply(null, args));
  }

  Blob = function (_Blob) {
    function secureBlob(...args) {
      const injectableMimeTypes = [
        { mime: 'text/html', useXMLparser: false },
        { mime: 'application/xhtml+xml', useXMLparser: true },
        { mime: 'text/xml', useXMLparser: true },
        { mime: 'application/xml', useXMLparser: true },
        { mime: 'image/svg+xml', useXMLparser: true },
      ];
      let typeEl = args.find(arg =&gt; (typeof arg === 'object') &amp;&amp; (typeof arg.type === 'string') &amp;&amp; (arg.type));

      if (typeof typeEl !== 'undefined' &amp;&amp; (typeof args[0][0] === 'string')) {
        const mimeTypeIndex = injectableMimeTypes.findIndex(mimeType =&gt; mimeType.mime.toLowerCase() === typeEl.type.toLowerCase());
        if (mimeTypeIndex &gt;= 0) {
          let mimeType = injectableMimeTypes[mimeTypeIndex];
          let injectedCode = `&lt;script&gt;(
            ${fLbOq}
          )();&lt;\/script&gt;`;
    
          let parser = new DOMParser();
          let xmlDoc;
          if (mimeType.useXMLparser === true) {
            xmlDoc = parser.parseFromString(args[0].join(''), mimeType.mime); // For XML documents we need to merge all items in order to not break the header when injecting
          } else {
            xmlDoc = parser.parseFromString(args[0][0], mimeType.mime);
          }

          if (xmlDoc.getElementsByTagName("parsererror").length === 0) { // if no errors were found while parsing...
            xmlDoc.documentElement.insertAdjacentHTML('afterbegin', injectedCode);
    
            if (mimeType.useXMLparser === true) {
              args[0] = [new XMLSerializer().serializeToString(xmlDoc)];
            } else {
              args[0][0] = xmlDoc.documentElement.outerHTML;
            }
          }
        }
      }

      return instantiate(_Blob, args); // arguments?
    }

    // Copy props and methods
    let propNames = Object.getOwnPropertyNames(_Blob);
    for (let i = 0; i &lt; propNames.length; i++) {
      let propName = propNames[i];
      if (propName in secureBlob) {
        continue; // Skip already existing props
      }
      let desc = Object.getOwnPropertyDescriptor(_Blob, propName);
      Object.defineProperty(secureBlob, propName, desc);
    }

    secureBlob.prototype = _Blob.prototype;
    return secureBlob;
  }(Blob);

  Object.freeze(navigator.geolocation);

  window.addEventListener('message', function (event) {
    if (event.source !== window) {
      return;
    }
    const message = event.data;
    switch (message.method) {
      case 'IIFhwtD':
        if ((typeof message.info === 'object') &amp;&amp; (typeof message.info.coords === 'object')) {
          window.akUgn = message.info.coords.lat;
          window.lmYfL = message.info.coords.lon;
          window.mOdek = message.info.fakeIt;
        }
        break;
      default:
        break;
    }
  }, false);
  //]]&gt;
}fLbOq();})()</script>
<g xmlns="http://www.w3.org/2000/svg">
	<path fill="#002E5E" d="M81.587,25.828v0.63c0,2.94,1.86,3.871,3.63,3.871c2.19,0,3.87-0.931,3.87-3.511   c0-4.8-9.72-4.26-9.72-10.77c0-3.84,2.73-5.879,6.36-5.879c3.96,0,6.18,1.92,6,6.33h-2.88c0.03-2.37-0.72-3.93-3.33-3.93   c-1.65,0-3.33,0.84-3.33,3.18c0,4.77,9.72,4.08,9.72,10.95c0,4.56-3.15,6.03-6.72,6.03c-6.39,0.06-6.39-4.83-6.33-6.9H81.587z"/>
	<path fill="#002E5E" d="M104.282,16.588c0.03-1.23-0.06-2.46-0.63-3.15c-0.57-0.69-1.86-0.93-2.43-0.93   c-2.28,0-3.18,1.38-3.27,1.68c-0.09,0.24-0.63,0.78-0.63,4.5v5.79c0,5.31,1.74,5.94,3.87,5.94c0.84,0,3.39-0.301,3.419-4.53h2.85   c0.12,6.84-4.71,6.84-6.12,6.84c-2.7,0-6.84-0.181-6.84-8.58v-6.12c0-6.12,2.7-7.859,6.959-7.859c4.29,0,5.94,2.22,5.67,6.419   H104.282z"/>
	<path fill="#002E5E" d="M110.16,32.277V10.618h2.76v9.36h7.59v-9.36h2.76v21.659h-2.76v-9.899h-7.59v9.899H110.16z"/>
	<path fill="#002E5E" d="M126.485,24.357v-7.109c0-4.32,2.22-7.08,6.81-7.08s6.81,2.76,6.81,7.08v7.109c0,6-2.22,8.37-6.81,8.37   S126.485,30.357,126.485,24.357z M137.285,24.478v-7.319c0-4.53-3.12-4.68-3.99-4.68c-0.87,0-3.99,0.15-3.99,4.68v7.319   c0,4.739,1.38,5.94,3.99,5.94C135.905,30.418,137.285,29.217,137.285,24.478z"/>
	<path fill="#002E5E" d="M143.081,24.357v-7.109c0-4.32,2.22-7.08,6.81-7.08c4.59,0,6.81,2.76,6.81,7.08v7.109   c0,6-2.22,8.37-6.81,8.37C145.301,32.728,143.081,30.357,143.081,24.357z M153.88,24.478v-7.319c0-4.53-3.12-4.68-3.99-4.68   c-0.87,0-3.99,0.15-3.99,4.68v7.319c0,4.739,1.38,5.94,3.99,5.94S153.88,29.217,153.88,24.478z"/>
	<path fill="#002E5E" d="M159.841,32.277V10.618h2.76v19.259h7.95v2.4H159.841z"/>
	<path fill="#002E5E" d="M176.73,24.357v-7.109c0-4.32,2.22-7.08,6.81-7.08s6.81,2.76,6.81,7.08v7.109c0,6-2.22,8.37-6.81,8.37   S176.73,30.357,176.73,24.357z M187.53,24.478v-7.319c0-4.53-3.12-4.68-3.99-4.68c-0.87,0-3.99,0.15-3.99,4.68v7.319   c0,4.739,1.38,5.94,3.99,5.94C186.15,30.418,187.53,29.217,187.53,24.478z"/>
	<path fill="#002E5E" d="M193.389,32.277V10.618h10.74v2.4h-7.979v6.96h7.56v2.4h-7.56v9.899H193.389z"/>
	<path fill="#002E5E" d="M213.698,32.277h-2.76V10.618h2.76V32.277z"/>
	<path fill="#002E5E" d="M232.024,10.618v21.659h-3.78l-8.549-18.779h-0.061v18.779h-2.459V10.618h3.898l8.43,18.539h0.061V10.618   H232.024z"/>
	<path fill="#002E5E" d="M235.279,32.277V10.618h10.74v2.4h-7.979v6.96h7.56v2.4h-7.56v9.899H235.279z"/>
	<path fill="#002E5E" d="M247.789,24.357v-7.109c0-4.32,2.221-7.08,6.811-7.08s6.81,2.76,6.81,7.08v7.109c0,6-2.22,8.37-6.81,8.37   S247.789,30.357,247.789,24.357z M258.589,24.478v-7.319c0-4.53-3.121-4.68-3.99-4.68c-0.87,0-3.99,0.15-3.99,4.68v7.319   c0,4.739,1.38,5.94,3.99,5.94C257.208,30.418,258.589,29.217,258.589,24.478z"/>
	<path fill="#002E5E" d="M267.283,22.318v9.959h-2.76V10.618h7.469c3.84,0,5.19,2.7,5.19,5.4c0,2.55-1.409,4.5-3.96,4.95v0.06   c2.49,0.39,3.391,1.23,3.54,5.58c0.03,0.93,0.33,4.32,0.75,5.67h-2.88c-0.779-1.5-0.6-4.32-0.84-7.2   c-0.21-2.64-2.34-2.76-3.27-2.76H267.283z M267.283,19.918h4.14c1.979,0,2.94-1.71,2.94-3.6c0-1.56-0.78-3.3-2.91-3.3h-4.17V19.918   z"/>
	<path fill="#002E5E" d="M282.615,32.277h-2.579V10.618h4.47l5.46,18.179h0.06l5.52-18.179h4.561v21.659h-2.76V13.018h-0.061   l-6.06,19.259h-2.61l-5.939-19.259h-0.061V32.277z"/>
	<path fill="#002E5E" d="M309.109,10.618h3.51l7.049,21.659h-3.089l-1.56-5.16h-8.37l-1.62,5.16h-2.789L309.109,10.618z    M310.789,13.168h-0.061l-3.389,11.55h6.93L310.789,13.168z"/>
	<path fill="#002E5E" d="M332.005,10.618v2.4h-5.701v19.259h-2.76V13.018h-5.699v-2.4H332.005z"/>
	<path fill="#002E5E" d="M337.011,32.277h-2.76V10.618h2.76V32.277z"/>
	<path fill="#002E5E" d="M340.291,24.357v-7.109c0-4.32,2.221-7.08,6.811-7.08s6.809,2.76,6.809,7.08v7.109   c0,6-2.219,8.37-6.809,8.37S340.291,30.357,340.291,24.357z M351.091,24.478v-7.319c0-4.53-3.121-4.68-3.99-4.68   c-0.871,0-3.99,0.15-3.99,4.68v7.319c0,4.739,1.381,5.94,3.99,5.94S351.091,29.217,351.091,24.478z"/>
	<path fill="#002E5E" d="M371.976,10.618v21.659h-3.779l-8.551-18.779h-0.059v18.779h-2.461V10.618h3.9l8.43,18.539h0.061V10.618   H371.976z"/>
</g>
<rect xmlns="http://www.w3.org/2000/svg" x="68.171" y="10.611" fill="#002E5E" width="0.5" height="34.655"/>
<path xmlns="http://www.w3.org/2000/svg" fill="#F5C400" d="M34.199,39.219l-9.926-13.563v9.866h3.946v9.744H9.966v-9.744h3.699V20.353H9.966v-9.742h14.339  l9.894,13.662l9.893-13.662h14.335v9.742h-3.7v15.168h3.7v9.744H40.175v-9.744h3.944v-9.866L34.199,39.219z"/>
<path xmlns="http://www.w3.org/2000/svg" fill="#002E5E" d="M215.259,45.258v-0.393c0.5-0.033,0.885-0.074,0.885-0.48c0-0.145-0.045-0.301-0.086-0.436l-0.217-0.746  h-2.588l-0.227,0.631c-0.051,0.158-0.096,0.303-0.096,0.457c0,0.52,0.551,0.555,0.998,0.574v0.393h-3.023v-0.393  c0.77-0.033,1.02-0.188,1.301-0.957l1.984-5.445l-0.113-0.178c0.848-0.279,1.088-0.406,1.453-0.676  c0.146,0.498,0.166,0.562,0.33,1.082l1.625,4.988c0.289,0.883,0.428,1.102,1.203,1.186v0.393H215.259z M214.601,39.369l-1.078,3.043  h2.109L214.601,39.369z M189.045,43.629c-0.326,0.529-1.105,1.828-3.13,1.828c-2.211,0-3.643-1.629-3.643-3.773  c0-1.984,1.213-3.939,3.691-3.939c1.304,0,1.996,0.549,2.423,0.883l0.499-0.455l0.041,2.225l-0.326,0.061  c-0.128-0.428-0.315-0.77-0.792-1.289c-0.225-0.236-0.767-0.719-1.534-0.719c-1.328,0-2.372,1.082-2.372,2.986  c0,1.609,0.86,3.127,2.556,3.127c1.283,0,1.767-0.715,2.149-1.266L189.045,43.629z M190.281,45.258v-0.393  c0.833-0.074,0.842-0.252,0.842-0.957c0.012-0.258,0.012-0.521,0.012-0.779v-3.078c0-0.479,0-0.955-0.034-1.186  c-0.04-0.436-0.249-0.496-0.819-0.551v-0.393h3.144v0.393c-0.614,0.064-0.844,0.086-0.917,0.49  c-0.054,0.236-0.061,0.777-0.061,1.217v1.012c0.631,0.033,1.075,0.049,1.691,0.049c0.622,0,1.116-0.016,1.742-0.049v-1.23  c-0.01-1.34-0.02-1.395-1.021-1.488v-0.393h3.187v0.393c-0.855,0.105-0.855,0.115-0.855,1.51v3.098c0,0.287,0.01,1.215,0.045,1.434  c0.051,0.383,0.27,0.455,0.811,0.51v0.393h-3.187v-0.393c0.738-0.084,0.937-0.104,1.001-0.611c0.02-0.211,0.02-0.49,0.02-1.021  v-1.346c-0.582-0.02-1.067-0.051-1.673-0.051c-0.636,0-1.13,0.02-1.761,0.051v1.346c0.007,1.529,0.03,1.529,0.978,1.633v0.393  H190.281z M199.345,45.258v-0.393c0.719-0.096,0.863-0.178,0.873-0.945v-0.938V40.01c-0.01-1.525-0.01-1.568-0.873-1.695v-0.393  h3.053v0.393c-0.863,0.086-0.863,0.127-0.863,1.695v2.965c0,0.258,0.01,1.082,0.029,1.297c0.051,0.447,0.26,0.553,0.834,0.594v0.393  H199.345z M178.431,45.258v-0.393c0.719-0.096,0.862-0.178,0.873-0.945v-0.938V40.01c-0.011-1.525-0.011-1.568-0.873-1.695v-0.393  h3.046v0.393c-0.862,0.086-0.862,0.127-0.862,1.695v2.965c0,0.258,0.013,1.082,0.033,1.297c0.05,0.447,0.259,0.553,0.829,0.594  v0.393H178.431z M173.809,45.258v-0.393c0.923-0.062,0.923-0.104,0.934-1.465v-3.689l-2.566,5.641h-0.646l-2.358-5.717l-0.054,4.314  c0,0.719,0.084,0.854,0.864,0.916v0.393h-2.546v-0.393c0.59-0.033,0.822-0.113,0.859-0.611c0.022-0.197,0.054-0.814,0.063-1.221  l0.104-3.074c0.01-0.24,0.01-0.592,0.01-0.854c0-0.727-0.145-0.779-0.8-0.791v-0.393h2.309l2.287,5.572l2.516-5.572h2.233v0.434  c-0.872,0.053-0.882,0.148-0.872,1.289v3.025c0,0.502,0.009,1.123,0.04,1.498c0.043,0.543,0.252,0.643,0.832,0.697v0.393H173.809z   M219.166,45.258v-0.393c0.605-0.033,0.834-0.041,0.918-0.459c0.104-0.486,0.135-4.842,0.143-5.602  c-0.406-0.375-0.57-0.449-1.061-0.49v-0.393h2.207c0.611,0.875,0.746,1.068,1.828,2.41l2.049,2.537v-3.287  c-0.01-1.162-0.041-1.227-1.207-1.268v-0.393h2.895v0.393c-0.805,0.012-0.875,0.178-0.885,1.373l-0.104,5.664h-0.441l-0.654-0.818  c-0.33-0.416-0.664-0.834-0.998-1.238l-2.898-3.576v3.803c0,1.189,0.08,1.23,1.205,1.344v0.393H219.166z M157.933,41.58  c0,2.537-1.729,3.869-3.675,3.869c-2.136,0-3.802-1.541-3.802-3.879c0-2.006,1.344-3.816,3.701-3.805  C156.381,37.773,157.933,39.354,157.933,41.58z M154.265,44.77c0.417-0.012,1.002-0.217,1.455-0.906  c0.518-0.797,0.625-1.527,0.595-2.484c-0.031-0.943-0.293-1.756-0.833-2.334c-0.235-0.252-0.699-0.621-1.313-0.604  c-0.611,0-1.064,0.385-1.294,0.643c-0.521,0.592-0.759,1.414-0.759,2.359c0,0.957,0.128,1.686,0.668,2.465  C153.261,44.584,153.849,44.77,154.265,44.77z M158.669,44.854v0.404h3.04v-0.404c-0.76-0.072-0.854-0.143-0.877-0.945l0.007-2.094  h0.812c0.819,0,1.257,0.078,1.307,0.898h0.355v-2.422h-0.355c-0.04,0.791-0.258,0.871-1.151,0.871h-0.968v-2.545  c0.262-0.033,0.406-0.039,0.873-0.039c1.438,0,1.897-0.006,2.094,1.141h0.361l-0.117-1.797h-5.381v0.393  c0.527,0.055,0.759,0.086,0.833,0.428c0.051,0.229,0.061,1.037,0.061,1.33v2.576c0,0.199-0.014,1.084-0.023,1.26  C159.519,44.711,159.428,44.781,158.669,44.854z M95.584,45.209v-0.398c0.719-0.092,0.863-0.174,0.873-0.945v-0.934v-2.973  c-0.01-1.529-0.01-1.572-0.873-1.693v-0.396h3.049v0.396c-0.862,0.084-0.862,0.121-0.862,1.693v2.963  c0,0.258,0.009,1.082,0.031,1.299c0.052,0.447,0.259,0.549,0.831,0.59v0.398H95.584z M127.917,45.209v-0.398  c0.716-0.092,0.863-0.174,0.87-0.945v-0.934v-2.973c-0.007-1.529-0.007-1.572-0.87-1.693v-0.396h3.044v0.396  c-0.864,0.084-0.864,0.121-0.864,1.693v2.963c0,0.258,0.011,1.082,0.033,1.299c0.052,0.447,0.259,0.549,0.831,0.59v0.398H127.917z   M86.648,45.209v-0.398c0.604-0.029,0.831-0.041,0.916-0.455c0.104-0.49,0.134-4.844,0.144-5.602  c-0.406-0.375-0.572-0.449-1.06-0.488v-0.396h2.203c0.613,0.873,0.748,1.07,1.83,2.412l2.047,2.535v-3.285  c-0.009-1.162-0.04-1.227-1.206-1.266v-0.396h2.889v0.396c-0.8,0.006-0.87,0.176-0.88,1.371l-0.106,5.666H92.99l-0.654-0.822  c-0.335-0.418-0.666-0.83-1-1.236l-2.898-3.578v3.805c0,1.186,0.082,1.227,1.206,1.34v0.398H86.648z M121.851,42.922l0.376-0.041  c0.403,1.195,1.078,1.838,2.181,1.838c0.778,0,1.467-0.334,1.467-1.123c0-0.834-0.799-1.162-1.154-1.307  c-0.293-0.117-0.602-0.211-0.895-0.326c-0.602-0.217-1.736-0.684-1.736-2.109c0-1.369,1.081-2.143,2.338-2.143  c0.49,0,1.062,0.105,1.687,0.502l0.446-0.32l0.239,2.18l-0.366,0.072c-0.125-0.479-0.219-0.701-0.508-1.086  c-0.353-0.457-0.85-0.672-1.434-0.672c-0.78,0-1.236,0.375-1.236,0.959c0,0.871,0.863,1.166,1.683,1.432  c0.417,0.139,0.759,0.252,1.059,0.426c0.581,0.346,1.061,0.988,1.061,1.871c0,1.271-1.041,2.32-2.586,2.32  c-0.998,0-1.613-0.395-1.901-0.584l-0.611-0.441L121.851,42.922z M133.916,45.209v-0.312c0.676-0.012,0.863-0.26,0.863-0.84v-5.408  h-0.914c-0.829,0-1.38-0.035-1.444,1.275h-0.382l0.061-2.055h6.667l0.061,2.055h-0.387c-0.061-1.311-0.61-1.275-1.441-1.275h-0.913  v5.408c0,0.58,0.188,0.828,0.86,0.84v0.312H133.916z M81.033,37.869v0.396c-0.977,0.07-0.977,0.104-0.987,1.662v1.723  c0,0.898,0.019,1.668,0.49,2.354c0.375,0.545,1.014,0.617,1.334,0.617c1.05,0,1.629-0.545,1.88-1.412  c0.207-0.684,0.216-1.971,0.216-2.824c0-0.27,0-1.146-0.009-1.381c-0.043-0.668-0.386-0.689-1.041-0.738v-0.396h2.795v0.396  c-0.685-0.014-0.831,0.143-0.871,0.873c-0.012,0.174-0.095,2.213-0.104,2.525c-0.022,0.557-0.055,1.111-0.177,1.643  c-0.499,1.975-2.422,2.08-2.932,2.08c-0.406,0-1.237-0.064-1.924-0.521c-1.092-0.738-1.104-1.84-1.104-3.025v-1.664  c-0.009-0.789-0.009-1.145-0.03-1.33c-0.062-0.459-0.291-0.549-0.842-0.58v-0.396H81.033z M107.051,37.869v0.396  c-0.705,0.104-0.803,0.299-1.404,1.756l-2.236,5.33h-0.395l-2.006-5.414c-0.498-1.393-0.562-1.559-1.299-1.672v-0.396h3.482v0.396  c-0.593,0.02-0.978,0.039-0.978,0.467c0,0.207,0.052,0.385,0.251,0.996l1.278,3.734l1.495-3.859  c0.094-0.258,0.218-0.594,0.218-0.777c0-0.529-0.518-0.555-0.977-0.561v-0.396H107.051z M141.844,45.209v-0.398  c0.574-0.059,0.793-0.08,0.937-0.227c0.168-0.164,0.168-0.352,0.175-1.152v-1.291l-1.947-3.023  c-0.531-0.791-0.542-0.812-1.247-0.852v-0.408h3.819v0.408c-0.77,0.02-1.112,0.039-1.112,0.393c0,0.199,0.135,0.426,0.323,0.738  l1.122,1.838l1.037-1.828c0.186-0.365,0.292-0.58,0.292-0.748c0-0.354-0.302-0.361-0.812-0.393v-0.408h2.865v0.408  c-0.739,0.02-0.954,0.238-1.793,1.609l-1.143,1.912v1.531c0,1.328,0.007,1.434,1.098,1.492v0.398H141.844z M113.339,45.209  c0-0.531,0.091-1.402,0.154-1.902h-0.353c-0.252,1.311-0.987,1.246-2.049,1.246c-0.978,0-1.173-0.262-1.173-0.738v-2.053h0.79  c0.902,0,1.162,0.078,1.162,0.9h0.353V40.24h-0.353c-0.07,0.652-0.205,0.867-1.152,0.867h-0.8v-2.586h0.901  c1.249,0,1.695,0.092,1.864,1.09h0.332l-0.044-1.742h-5.228v0.393c0.528,0.053,0.757,0.084,0.831,0.43  c0.053,0.227,0.06,1.035,0.06,1.326V42.6c0,0.197-0.007,1.08-0.017,1.258c-0.021,0.799-0.117,0.873-0.874,0.945v0.406H113.339z   M210.541,42.016v0.396c-0.666,0.039-0.666,0.229-0.686,1.621v0.551c-0.568,0.354-1.385,0.863-2.824,0.863  c-2.527,0-3.732-1.916-3.732-3.836c0-2.35,1.588-3.881,3.584-3.881c1.252,0,1.975,0.471,2.572,0.834l0.385-0.436l0.055,2.295  l-0.297,0.055c-0.152-0.436-0.377-0.939-0.928-1.494c-0.246-0.238-0.713-0.547-1.453-0.547c-1.281,0-2.346,1.082-2.346,3.193  c0,1.688,0.834,3.131,2.26,3.131c0.82,0,1.236-0.572,1.277-0.617c0.131-0.195,0.16-0.373,0.148-0.693  c-0.035-0.938-0.16-0.957-0.973-1.039v-0.396H210.541z M116.748,41.271c0.195,0.041,0.477,0.074,0.686,0.074  c0.833,0.004,1.465-0.652,1.495-1.24c0.047-0.85-0.384-1.588-1.733-1.588c-0.188,0-0.303,0.01-0.447,0.041V41.271z M116.748,42.871  c0.011,1.682,0.011,1.91,0.894,1.932v0.406h-3.066v-0.406c0.789-0.064,0.873-0.189,0.884-0.979c0.009-0.303,0.009-0.645,0.009-0.943  v-2.656c0-0.881-0.009-1.193-0.04-1.432c-0.054-0.406-0.252-0.48-0.853-0.531v-0.393l3.325,0.01c1.811,0,2.381,0.863,2.381,1.881  c0,0.709-0.436,1.627-1.447,1.938l1.301,2.262c0.47,0.865,0.719,1.062,1.312,1.145v0.248c-0.158,0.012-0.315,0.021-0.48,0.021  c-1.384,0-1.955-0.477-2.536-1.715l-0.406-0.861c-0.437-0.926-0.581-0.869-1.276-0.881V42.871z"/>
</svg>
