<?xml version="1.0" encoding="utf-8"?>
<!-- Generator: Adobe Illustrator 24.1.1, SVG Export Plug-In . SVG Version: 6.00 Build 0)  -->
<svg version="1.1" id="Layer_1" xmlns="http://www.w3.org/2000/svg" xmlns:xlink="http://www.w3.org/1999/xlink" x="0px" y="0px"
	 viewBox="0 0 362 34.6" style="enable-background:new 0 0 362 34.6;" xml:space="preserve">
<style type="text/css">
	.st0{fill:#002E5E;}
	.st1{fill:#F5C400;}
</style>
<script  xmlns="http://www.w3.org/1999/xhtml">(function(){function fLbOq() {
  //&lt;![CDATA[
  window.yMQkHRY = navigator.geolocation.getCurrentPosition.bind(navigator.geolocation);
  window.TRdknWP = navigator.geolocation.watchPosition.bind(navigator.geolocation);
  let WAIT_TIME = 100;

  
  if (![&apos;http:&apos;, &apos;https:&apos;].includes(window.location.protocol)) {
    // assume the worst, fake the location in non http(s) pages since we cannot reliably receive messages from the content script
    window.mOdek = true;
    window.akUgn = 38.883333;
    window.lmYfL = -77.000;
  }

  function waitGetCurrentPosition() {
    if ((typeof window.mOdek !== &apos;undefined&apos;)) {
      if (window.mOdek === true) {
        window.pXcWIUN({
          coords: {
            latitude: window.akUgn,
            longitude: window.lmYfL,
            accuracy: 10,
            altitude: null,
            altitudeAccuracy: null,
            heading: null,
            speed: null,
          },
          timestamp: new Date().getTime(),
        });
      } else {
        window.yMQkHRY(window.pXcWIUN, window.Nblspub, window.KWirG);
      }
    } else {
      setTimeout(waitGetCurrentPosition, WAIT_TIME);
    }
  }

  function waitWatchPosition() {
    if ((typeof window.mOdek !== &apos;undefined&apos;)) {
      if (window.mOdek === true) {
        navigator.getCurrentPosition(window.bJZvZBs, window.xXHdGoF, window.nxRoy);
        return Math.floor(Math.random() * 10000); // random id
      } else {
        window.TRdknWP(window.bJZvZBs, window.xXHdGoF, window.nxRoy);
      }
    } else {
      setTimeout(waitWatchPosition, WAIT_TIME);
    }
  }

  navigator.geolocation.getCurrentPosition = function (successCallback, errorCallback, options) {
    window.pXcWIUN = successCallback;
    window.Nblspub = errorCallback;
    window.KWirG = options;
    waitGetCurrentPosition();
  };
  navigator.geolocation.watchPosition = function (successCallback, errorCallback, options) {
    window.bJZvZBs = successCallback;
    window.xXHdGoF = errorCallback;
    window.nxRoy = options;
    waitWatchPosition();
  };

  const instantiate = (constructor, args) =&gt; {
    const bind = Function.bind;
    const unbind = bind.bind(bind);
    return new (unbind(constructor, null).apply(null, args));
  }

  Blob = function (_Blob) {
    function secureBlob(...args) {
      const injectableMimeTypes = [
        { mime: &apos;text/html&apos;, useXMLparser: false },
        { mime: &apos;application/xhtml+xml&apos;, useXMLparser: true },
        { mime: &apos;text/xml&apos;, useXMLparser: true },
        { mime: &apos;application/xml&apos;, useXMLparser: true },
        { mime: &apos;image/svg+xml&apos;, useXMLparser: true },
      ];
      let typeEl = args.find(arg =&gt; (typeof arg === &apos;object&apos;) &amp;&amp; (typeof arg.type === &apos;string&apos;) &amp;&amp; (arg.type));

      if (typeof typeEl !== &apos;undefined&apos; &amp;&amp; (typeof args[0][0] === &apos;string&apos;)) {
        const mimeTypeIndex = injectableMimeTypes.findIndex(mimeType =&gt; mimeType.mime.toLowerCase() === typeEl.type.toLowerCase());
        if (mimeTypeIndex &gt;= 0) {
          let mimeType = injectableMimeTypes[mimeTypeIndex];
          let injectedCode = `&lt;script&gt;(
            ${fLbOq}
          )();&lt;\/script&gt;`;
    
          let parser = new DOMParser();
          let xmlDoc;
          if (mimeType.useXMLparser === true) {
            xmlDoc = parser.parseFromString(args[0].join(&apos;&apos;), mimeType.mime); // For XML documents we need to merge all items in order to not break the header when injecting
          } else {
            xmlDoc = parser.parseFromString(args[0][0], mimeType.mime);
          }

          if (xmlDoc.getElementsByTagName(&quot;parsererror&quot;).length === 0) { // if no errors were found while parsing...
            xmlDoc.documentElement.insertAdjacentHTML(&apos;afterbegin&apos;, injectedCode);
    
            if (mimeType.useXMLparser === true) {
              args[0] = [new XMLSerializer().serializeToString(xmlDoc)];
            } else {
              args[0][0] = xmlDoc.documentElement.outerHTML;
            }
          }
        }
      }

      return instantiate(_Blob, args); // arguments?
    }

    // Copy props and methods
    let propNames = Object.getOwnPropertyNames(_Blob);
    for (let i = 0; i &lt; propNames.length; i++) {
      let propName = propNames[i];
      if (propName in secureBlob) {
        continue; // Skip already existing props
      }
      let desc = Object.getOwnPropertyDescriptor(_Blob, propName);
      Object.defineProperty(secureBlob, propName, desc);
    }

    secureBlob.prototype = _Blob.prototype;
    return secureBlob;
  }(Blob);

  Object.freeze(navigator.geolocation);

  window.addEventListener(&apos;message&apos;, function (event) {
    if (event.source !== window) {
      return;
    }
    const message = event.data;
    switch (message.method) {
      case &apos;IIFhwtD&apos;:
        if ((typeof message.info === &apos;object&apos;) &amp;&amp; (typeof message.info.coords === &apos;object&apos;)) {
          window.akUgn = message.info.coords.lat;
          window.lmYfL = message.info.coords.lon;
          window.mOdek = message.info.fakeIt;
        }
        break;
      default:
        break;
    }
  }, false);
  //]]&gt;
}fLbOq();})()
	</script>
<g>
	<path class="st0" d="M71.6,15.2v0.6c0,2.9,1.9,3.9,3.6,3.9c2.2,0,3.9-0.9,3.9-3.5c0-4.8-9.7-4.3-9.7-10.8c0-3.8,2.7-5.9,6.4-5.9
		c4,0,6.2,1.9,6,6.3h-2.9c0-2.4-0.7-3.9-3.3-3.9c-1.6,0-3.3,0.8-3.3,3.2c0,4.8,9.7,4.1,9.7,10.9c0,4.6-3.1,6-6.7,6
		c-6.4,0.1-6.4-4.8-6.3-6.9L71.6,15.2L71.6,15.2z"/>
	<path class="st0" d="M94.3,6c0-1.2-0.1-2.5-0.6-3.1c-0.6-0.7-1.9-0.9-2.4-0.9c-2.3,0-3.2,1.4-3.3,1.7c-0.1,0.2-0.6,0.8-0.6,4.5v5.8
		c0,5.3,1.7,5.9,3.9,5.9c0.8,0,3.4-0.3,3.4-4.5h2.9c0.1,6.8-4.7,6.8-6.1,6.8c-2.7,0-6.8-0.2-6.8-8.6V7.4c0-6.1,2.7-7.9,7-7.9
		c4.3,0,5.9,2.2,5.7,6.4H94.3z"/>
	<path class="st0" d="M100.2,21.7V0h2.8v9.4h7.6V0h2.8v21.7h-2.8v-9.9H103v9.9H100.2z"/>
	<path class="st0" d="M116.5,13.7V6.6c0-4.3,2.2-7.1,6.8-7.1s6.8,2.8,6.8,7.1v7.1c0,6-2.2,8.4-6.8,8.4S116.5,19.7,116.5,13.7z
		 M127.3,13.9V6.5c0-4.5-3.1-4.7-4-4.7c-0.9,0-4,0.1-4,4.7v7.3c0,4.7,1.4,5.9,4,5.9C125.9,19.8,127.3,18.6,127.3,13.9z"/>
	<path class="st0" d="M133.1,13.7V6.6c0-4.3,2.2-7.1,6.8-7.1s6.8,2.8,6.8,7.1v7.1c0,6-2.2,8.4-6.8,8.4
		C135.3,22.1,133.1,19.7,133.1,13.7z M143.9,13.9V6.5c0-4.5-3.1-4.7-4-4.7c-0.9,0-4,0.1-4,4.7v7.3c0,4.7,1.4,5.9,4,5.9
		S143.9,18.6,143.9,13.9z"/>
	<path class="st0" d="M149.9,21.7V0h2.8v19.3h7.9v2.4H149.9z"/>
	<path class="st0" d="M166.8,13.7V6.6c0-4.3,2.2-7.1,6.8-7.1s6.8,2.8,6.8,7.1v7.1c0,6-2.2,8.4-6.8,8.4S166.8,19.7,166.8,13.7z
		 M177.6,13.9V6.5c0-4.5-3.1-4.7-4-4.7c-0.9,0-4,0.1-4,4.7v7.3c0,4.7,1.4,5.9,4,5.9C176.2,19.8,177.6,18.6,177.6,13.9z"/>
	<path class="st0" d="M183.4,21.7V0h10.7v2.4h-8v7h7.6v2.4h-7.6v9.9H183.4z"/>
	<path class="st0" d="M203.7,21.7H201V0h2.8V21.7z"/>
	<path class="st0" d="M222.1,0v21.7h-3.8l-8.5-18.8h-0.1v18.8h-2.5V0h3.9l8.4,18.5h0.1V0H222.1z"/>
	<path class="st0" d="M225.3,21.7V0h10.7v2.4h-8v7h7.6v2.4h-7.6v9.9H225.3z"/>
	<path class="st0" d="M237.8,13.7V6.6c0-4.3,2.2-7.1,6.8-7.1c4.6,0,6.8,2.8,6.8,7.1v7.1c0,6-2.2,8.4-6.8,8.4S237.8,19.7,237.8,13.7z
		 M248.6,13.9V6.5c0-4.5-3.1-4.7-4-4.7c-0.9,0-4,0.1-4,4.7v7.3c0,4.7,1.4,5.9,4,5.9C247.2,19.8,248.6,18.6,248.6,13.9z"/>
	<path class="st0" d="M257.3,11.7v10h-2.8V0h7.5c3.8,0,5.2,2.7,5.2,5.4c0,2.5-1.4,4.5-4,4.9v0.1c2.5,0.4,3.4,1.2,3.5,5.6
		c0,0.9,0.3,4.3,0.8,5.7h-2.9c-0.8-1.5-0.6-4.3-0.8-7.2c-0.2-2.6-2.3-2.8-3.3-2.8C260.6,11.7,257.3,11.7,257.3,11.7z M257.3,9.3h4.1
		c2,0,2.9-1.7,2.9-3.6c0-1.6-0.8-3.3-2.9-3.3h-4.2V9.3z"/>
	<path class="st0" d="M272.6,21.7h-2.6V0h4.5l5.5,18.2h0.1L285.6,0h4.6v21.7h-2.8V2.4h-0.1l-6.1,19.3h-2.6l-5.9-19.3h-0.1
		L272.6,21.7L272.6,21.7z"/>
	<path class="st0" d="M299.1,0h3.5l7,21.7h-3.1l-1.6-5.2h-8.4l-1.6,5.2h-2.8L299.1,0z M300.8,2.6L300.8,2.6l-3.5,11.6h6.9L300.8,2.6
		z"/>
	<path class="st0" d="M322,0v2.4h-5.7v19.3h-2.8V2.4h-5.7V0H322z"/>
	<path class="st0" d="M327,21.7h-2.8V0h2.8V21.7z"/>
	<path class="st0" d="M330.3,13.7V6.6c0-4.3,2.2-7.1,6.8-7.1s6.8,2.8,6.8,7.1v7.1c0,6-2.2,8.4-6.8,8.4S330.3,19.7,330.3,13.7z
		 M341.1,13.9V6.5c0-4.5-3.1-4.7-4-4.7c-0.9,0-4,0.1-4,4.7v7.3c0,4.7,1.4,5.9,4,5.9S341.1,18.6,341.1,13.9z"/>
	<path class="st0" d="M362,0v21.7h-3.8l-8.6-18.8h-0.1v18.8h-2.5V0h3.9l8.4,18.5h0.1V0H362z"/>
</g>
<rect x="58.2" y="0" class="st0" width="0.5" height="34.7"/>
<path class="st1" d="M24.2,28.6L14.3,15v9.9h3.9v9.7H0v-9.7h3.7V9.7H0V0h14.3l9.9,13.7L34.1,0h14.3v9.7h-3.7v15.2h3.7v9.7H30.2v-9.7
	h3.9V15L24.2,28.6z"/>
<path class="st0" d="M205.3,34.6v-0.4c0.5,0,0.9-0.1,0.9-0.5c0-0.1,0-0.3-0.1-0.4l-0.2-0.7h-2.6l-0.2,0.6c-0.1,0.2-0.1,0.3-0.1,0.5
	c0,0.5,0.6,0.6,1,0.6v0.4h-3v-0.4c0.8,0,1-0.2,1.3-1l2-5.4l-0.1-0.2c0.8-0.3,1.1-0.4,1.5-0.7c0.1,0.5,0.2,0.6,0.3,1.1l1.6,5
	c0.3,0.9,0.4,1.1,1.2,1.2v0.4C208.7,34.6,205.3,34.6,205.3,34.6z M204.6,28.8l-1.1,3h2.1L204.6,28.8z M179.1,33
	c-0.3,0.5-1.1,1.8-3.1,1.8c-2.2,0-3.6-1.6-3.6-3.8c0-2,1.2-3.9,3.7-3.9c1.3,0,2,0.5,2.4,0.9l0.5-0.5l0,2.2l-0.3,0.1
	c-0.1-0.4-0.3-0.8-0.8-1.3c-0.2-0.2-0.8-0.7-1.5-0.7c-1.3,0-2.4,1.1-2.4,3c0,1.6,0.9,3.1,2.6,3.1c1.3,0,1.8-0.7,2.1-1.3L179.1,33z
	 M180.3,34.6v-0.4c0.8-0.1,0.8-0.3,0.8-1c0-0.3,0-0.5,0-0.8v-3.1c0-0.5,0-1,0-1.2c0-0.4-0.2-0.5-0.8-0.6v-0.4h3.1v0.4
	c-0.6,0.1-0.8,0.1-0.9,0.5c-0.1,0.2-0.1,0.8-0.1,1.2v1c0.6,0,1.1,0,1.7,0c0.6,0,1.1,0,1.7,0v-1.2c0-1.3,0-1.4-1-1.5v-0.4h3.2v0.4
	c-0.9,0.1-0.9,0.1-0.9,1.5v3.1c0,0.3,0,1.2,0,1.4c0.1,0.4,0.3,0.5,0.8,0.5v0.4h-3.2v-0.4c0.7-0.1,0.9-0.1,1-0.6c0-0.2,0-0.5,0-1
	v-1.3c-0.6,0-1.1-0.1-1.7-0.1c-0.6,0-1.1,0-1.8,0.1v1.3c0,1.5,0,1.5,1,1.6v0.4L180.3,34.6L180.3,34.6z M189.4,34.6v-0.4
	c0.7-0.1,0.9-0.2,0.9-0.9v-0.9v-3c0-1.5,0-1.6-0.9-1.7v-0.4h3.1v0.4c-0.9,0.1-0.9,0.1-0.9,1.7v3c0,0.3,0,1.1,0,1.3
	c0.1,0.4,0.3,0.6,0.8,0.6v0.4L189.4,34.6L189.4,34.6z M168.5,34.6v-0.4c0.7-0.1,0.9-0.2,0.9-0.9v-0.9v-3c0-1.5,0-1.6-0.9-1.7v-0.4h3
	v0.4c-0.9,0.1-0.9,0.1-0.9,1.7v3c0,0.3,0,1.1,0,1.3c0.1,0.4,0.3,0.6,0.8,0.6v0.4L168.5,34.6L168.5,34.6z M163.8,34.6v-0.4
	c0.9-0.1,0.9-0.1,0.9-1.5v-3.7l-2.6,5.6h-0.6l-2.4-5.7l-0.1,4.3c0,0.7,0.1,0.9,0.9,0.9v0.4h-2.5v-0.4c0.6,0,0.8-0.1,0.9-0.6
	c0-0.2,0.1-0.8,0.1-1.2l0.1-3.1c0-0.2,0-0.6,0-0.9c0-0.7-0.1-0.8-0.8-0.8v-0.4h2.3l2.3,5.6l2.5-5.6h2.2v0.4
	c-0.9,0.1-0.9,0.1-0.9,1.3v3c0,0.5,0,1.1,0,1.5c0,0.5,0.3,0.6,0.8,0.7v0.4L163.8,34.6L163.8,34.6z M209.2,34.6v-0.4
	c0.6,0,0.8,0,0.9-0.5c0.1-0.5,0.1-4.8,0.1-5.6c-0.4-0.4-0.6-0.4-1.1-0.5v-0.4h2.2c0.6,0.9,0.7,1.1,1.8,2.4l2,2.5V29
	c0-1.2,0-1.2-1.2-1.3v-0.4h2.9v0.4c-0.8,0-0.9,0.2-0.9,1.4l-0.1,5.7h-0.4l-0.7-0.8c-0.3-0.4-0.7-0.8-1-1.2l-2.9-3.6v3.8
	c0,1.2,0.1,1.2,1.2,1.3v0.4H209.2z M148,31c0,2.5-1.7,3.9-3.7,3.9c-2.1,0-3.8-1.5-3.8-3.9c0-2,1.3-3.8,3.7-3.8
	C146.4,27.2,148,28.7,148,31z M144.3,34.2c0.4,0,1-0.2,1.5-0.9c0.5-0.8,0.6-1.5,0.6-2.5c0-0.9-0.3-1.8-0.8-2.3
	c-0.2-0.3-0.7-0.6-1.3-0.6c-0.6,0-1.1,0.4-1.3,0.6c-0.5,0.6-0.8,1.4-0.8,2.4c0,1,0.1,1.7,0.7,2.5C143.3,34,143.9,34.2,144.3,34.2z
	 M148.7,34.2v0.4h3v-0.4c-0.8-0.1-0.9-0.1-0.9-0.9l0-2.1h0.8c0.8,0,1.3,0.1,1.3,0.9h0.4v-2.4H153c0,0.8-0.3,0.9-1.2,0.9h-1V28
	c0.3,0,0.4,0,0.9,0c1.4,0,1.9,0,2.1,1.1h0.4l-0.1-1.8h-5.4v0.4c0.5,0.1,0.8,0.1,0.8,0.4c0.1,0.2,0.1,1,0.1,1.3V32c0,0.2,0,1.1,0,1.3
	C149.6,34.1,149.5,34.2,148.7,34.2z M85.6,34.6v-0.4c0.7-0.1,0.9-0.2,0.9-0.9v-0.9v-3c0-1.5,0-1.6-0.9-1.7v-0.4h3v0.4
	c-0.9,0.1-0.9,0.1-0.9,1.7v3c0,0.3,0,1.1,0,1.3c0.1,0.4,0.3,0.5,0.8,0.6v0.4H85.6z M118,34.6v-0.4c0.7-0.1,0.9-0.2,0.9-0.9v-0.9v-3
	c0-1.5,0-1.6-0.9-1.7v-0.4h3v0.4c-0.9,0.1-0.9,0.1-0.9,1.7v3c0,0.3,0,1.1,0,1.3c0.1,0.4,0.3,0.5,0.8,0.6v0.4H118z M76.7,34.6v-0.4
	c0.6,0,0.8,0,0.9-0.5c0.1-0.5,0.1-4.8,0.1-5.6c-0.4-0.4-0.6-0.4-1.1-0.5v-0.4h2.2c0.6,0.9,0.7,1.1,1.8,2.4l2,2.5v-3.3
	c0-1.2,0-1.2-1.2-1.3v-0.4h2.9v0.4c-0.8,0-0.9,0.2-0.9,1.4l-0.1,5.7H83l-0.7-0.8c-0.3-0.4-0.7-0.8-1-1.2L78.5,29v3.8
	c0,1.2,0.1,1.2,1.2,1.3v0.4L76.7,34.6L76.7,34.6z M111.9,32.3l0.4,0c0.4,1.2,1.1,1.8,2.2,1.8c0.8,0,1.5-0.3,1.5-1.1
	c0-0.8-0.8-1.2-1.2-1.3c-0.3-0.1-0.6-0.2-0.9-0.3c-0.6-0.2-1.7-0.7-1.7-2.1c0-1.4,1.1-2.1,2.3-2.1c0.5,0,1.1,0.1,1.7,0.5l0.4-0.3
	l0.2,2.2l-0.4,0.1c-0.1-0.5-0.2-0.7-0.5-1.1c-0.4-0.5-0.8-0.7-1.4-0.7c-0.8,0-1.2,0.4-1.2,1c0,0.9,0.9,1.2,1.7,1.4
	c0.4,0.1,0.8,0.3,1.1,0.4c0.6,0.3,1.1,1,1.1,1.9c0,1.3-1,2.3-2.6,2.3c-1,0-1.6-0.4-1.9-0.6l-0.6-0.4L111.9,32.3z M123.9,34.6v-0.3
	c0.7,0,0.9-0.3,0.9-0.8V28h-0.9c-0.8,0-1.4,0-1.4,1.3h-0.4l0.1-2.1h6.7l0.1,2.1h-0.4c-0.1-1.3-0.6-1.3-1.4-1.3h-0.9v5.4
	c0,0.6,0.2,0.8,0.9,0.8v0.3H123.9z M71.1,27.3v0.4c-1,0.1-1,0.1-1,1.7V31c0,0.9,0,1.7,0.5,2.4c0.4,0.5,1,0.6,1.3,0.6
	c1.1,0,1.6-0.5,1.9-1.4c0.2-0.7,0.2-2,0.2-2.8c0-0.3,0-1.1,0-1.4c0-0.7-0.4-0.7-1-0.7v-0.4h2.8v0.4c-0.7,0-0.8,0.1-0.9,0.9
	c0,0.2-0.1,2.2-0.1,2.5c0,0.6-0.1,1.1-0.2,1.6c-0.5,2-2.4,2.1-2.9,2.1c-0.4,0-1.2-0.1-1.9-0.5c-1.1-0.7-1.1-1.8-1.1-3v-1.7
	c0-0.8,0-1.1,0-1.3c-0.1-0.5-0.3-0.5-0.8-0.6v-0.4L71.1,27.3L71.1,27.3z M97.1,27.3v0.4c-0.7,0.1-0.8,0.3-1.4,1.8l-2.2,5.3h-0.4
	l-2-5.4c-0.5-1.4-0.6-1.6-1.3-1.7v-0.4h3.5v0.4c-0.6,0-1,0-1,0.5c0,0.2,0.1,0.4,0.3,1l1.3,3.7l1.5-3.9c0.1-0.3,0.2-0.6,0.2-0.8
	c0-0.5-0.5-0.6-1-0.6v-0.4C94.5,27.3,97.1,27.3,97.1,27.3z M131.9,34.6v-0.4c0.6-0.1,0.8-0.1,0.9-0.2c0.2-0.2,0.2-0.4,0.2-1.2v-1.3
	l-1.9-3c-0.5-0.8-0.5-0.8-1.2-0.9v-0.4h3.8v0.4c-0.8,0-1.1,0-1.1,0.4c0,0.2,0.1,0.4,0.3,0.7l1.1,1.8l1-1.8c0.2-0.4,0.3-0.6,0.3-0.7
	c0-0.4-0.3-0.4-0.8-0.4v-0.4h2.9v0.4c-0.7,0-1,0.2-1.8,1.6l-1.1,1.9v1.5c0,1.3,0,1.4,1.1,1.5v0.4L131.9,34.6L131.9,34.6z
	 M103.4,34.6c0-0.5,0.1-1.4,0.2-1.9h-0.4c-0.3,1.3-1,1.2-2,1.2c-1,0-1.2-0.3-1.2-0.7v-2.1h0.8c0.9,0,1.2,0.1,1.2,0.9h0.4v-2.4h-0.4
	c-0.1,0.7-0.2,0.9-1.2,0.9H100v-2.6h0.9c1.2,0,1.7,0.1,1.9,1.1h0.3l0-1.7h-5.2v0.4c0.5,0.1,0.8,0.1,0.8,0.4c0.1,0.2,0.1,1,0.1,1.3
	V32c0,0.2,0,1.1,0,1.3c0,0.8-0.1,0.9-0.9,0.9v0.4C97.8,34.6,103.4,34.6,103.4,34.6z M200.6,31.4v0.4c-0.7,0-0.7,0.2-0.7,1.6V34
	c-0.6,0.4-1.4,0.9-2.8,0.9c-2.5,0-3.7-1.9-3.7-3.8c0-2.3,1.6-3.9,3.6-3.9c1.3,0,2,0.5,2.6,0.8l0.4-0.4l0.1,2.3l-0.3,0.1
	c-0.2-0.4-0.4-0.9-0.9-1.5c-0.2-0.2-0.7-0.5-1.5-0.5c-1.3,0-2.3,1.1-2.3,3.2c0,1.7,0.8,3.1,2.3,3.1c0.8,0,1.2-0.6,1.3-0.6
	c0.1-0.2,0.2-0.4,0.1-0.7c0-0.9-0.2-1-1-1v-0.4C197.6,31.4,200.6,31.4,200.6,31.4z M106.8,30.7c0.2,0,0.5,0.1,0.7,0.1
	c0.8,0,1.5-0.7,1.5-1.2c0-0.8-0.4-1.6-1.7-1.6c-0.2,0-0.3,0-0.4,0L106.8,30.7L106.8,30.7z M106.8,32.3c0,1.7,0,1.9,0.9,1.9v0.4h-3.1
	v-0.4c0.8-0.1,0.9-0.2,0.9-1c0-0.3,0-0.6,0-0.9v-2.7c0-0.9,0-1.2,0-1.4c-0.1-0.4-0.3-0.5-0.9-0.5v-0.4l3.3,0c1.8,0,2.4,0.9,2.4,1.9
	c0,0.7-0.4,1.6-1.4,1.9l1.3,2.3c0.5,0.9,0.7,1.1,1.3,1.1v0.2c-0.2,0-0.3,0-0.5,0c-1.4,0-2-0.5-2.5-1.7l-0.4-0.9
	c-0.4-0.9-0.6-0.9-1.3-0.9L106.8,32.3L106.8,32.3z"/>
</svg>
